Coordinates
version=1
nRows=17
nColumns=36
inDegrees=yes

Units are S.I. units (second, meters, Newtons, ...)
If the header above contains a line with 'inDegrees', this indicates whether rotational values are in degrees (yes) or radians (no).

endheader
time	pelvis_tilt	pelvis_list	pelvis_rotation	pelvis_tx	pelvis_ty	pelvis_tz	hip_flexion_r	hip_adduction_r	hip_rotation_r	knee_angle_r	knee_angle_r_beta	ankle_angle_r	subtalar_angle_r	mtp_angle_r	hip_flexion_l	hip_adduction_l	hip_rotation_l	knee_angle_l	knee_angle_l_beta	ankle_angle_l	subtalar_angle_l	mtp_angle_l	lumbar_extension	lumbar_bending	lumbar_rotation	arm_flex_r	arm_add_r	arm_rot_r	elbow_flex_r	pro_sup_r	arm_flex_l	arm_add_l	arm_rot_l	elbow_flex_l	pro_sup_l
      6.60000000	     -5.47090784	      0.83011015	     -0.97427739	     -0.18253509	      0.91446192	     -0.59801031	     14.39751676	     -2.90507237	      0.49462458	     15.49340257	      0.27041089	      8.56635276	     -2.82650673	     -7.49999987	     13.68776077	     -0.94893598	     -2.03177153	     12.21571156	      0.21320439	      4.63728573	     -7.41721754	     -7.49999987	     -6.35986292	     -0.47974494	     -2.98649998	     30.61066127	    -11.98965910	      4.10402682	     74.50196752	     88.03636283	     26.32578428	    -14.91381320	      0.97475875	     78.18718128	     78.94691607
      6.61000000	     -5.53498086	      0.80675647	     -0.94364600	     -0.18238241	      0.91438236	     -0.59821428	     14.43883281	     -2.91392768	      0.35954082	     15.46446324	      0.26990580	      8.53513946	     -2.66528469	     -7.49999987	     13.78415322	     -1.01194508	     -2.38100823	     12.27713674	      0.21427646	      4.99439067	     -6.63439871	     -7.49999987	     -6.33040880	     -0.44944737	     -3.01714408	     30.71516828	    -11.86298935	      3.89455593	     73.82404995	     94.73331481	     26.43219065	    -14.74932441	      0.51421069	     76.96087567	     88.16731163
      6.62000000	     -5.59441933	      0.81835975	     -0.88989663	     -0.18229212	      0.91431660	     -0.59846234	     14.45529303	     -2.95196540	      0.29654953	     15.39700582	      0.26872845	      8.56098840	     -2.67069016	     -7.49999987	     13.85619448	     -0.97750460	     -2.38256525	     12.28418051	      0.21439940	      4.99449279	     -6.64039303	     -7.49999987	     -6.32317851	     -0.46197074	     -3.01900673	     30.74958317	    -11.79715830	      3.90303668	     73.85213293	     94.31058013	     26.55530696	    -14.67725521	      0.55036188	     76.92268955	     87.61815871
      6.63000000	     -5.67675250	      0.83178273	     -0.84794080	     -0.18222175	      0.91420980	     -0.59868338	     14.51590739	     -2.98906313	      0.23734207	     15.36156802	      0.26810994	      8.58335710	     -2.65975707	     -7.49999987	     13.95590463	     -0.94262041	     -2.36006123	     12.29734523	      0.21462916	      4.99652858	     -6.62918390	     -7.49999987	     -6.29685600	     -0.48174056	     -3.00691145	     30.77631830	    -11.77420907	      3.95278633	     73.89423763	     93.86578757	     26.67526180	    -14.52837503	      0.54678684	     76.88315188	     87.04042123
      6.64000000	     -5.69974357	      0.83625420	     -0.80338276	     -0.18217490	      0.91419362	     -0.59888889	     14.51553266	     -3.01491221	      0.20304082	     15.33987470	      0.26773132	      8.63034243	     -2.64254225	     -7.49999987	     13.99083903	     -0.91071177	     -2.27687400	     12.31775297	      0.21498535	      4.99712337	     -6.61284350	     -7.49999987	     -6.36427499	     -0.48973787	     -2.99956961	     30.85779040	    -11.77537393	      4.03584805	     73.93379440	     93.41409058	     26.83640995	    -14.36376123	      0.54005843	     76.83143184	     86.44269604
      6.65000000	     -5.77476868	      0.83428547	     -0.74311210	     -0.18211580	      0.91412579	     -0.59911652	     14.60472023	     -3.04429706	      0.14453420	     15.38426424	      0.26850606	      8.62726863	     -2.61235996	     -7.49999987	     14.08784717	     -0.89233103	     -2.18596045	     12.33483702	      0.21528352	      4.98716251	     -6.60037526	     -7.49999987	     -6.33194653	     -0.47902115	     -3.02002751	     30.89528665	    -11.73689704	      4.12940531	     73.96177680	     92.89345731	     26.90876196	    -14.27893859	      0.66778193	     76.80000506	     85.77984641
      6.66000000	     -5.81889080	      0.83689206	     -0.68819952	     -0.18206722	      0.91411431	     -0.59934398	     14.67605750	     -3.07543854	      0.11061829	     15.44825558	      0.26962292	      8.63291952	     -2.59863868	     -7.49999987	     14.14963372	     -0.85743176	     -2.05012132	     12.35711787	      0.21567239	      4.97660178	     -6.63545669	     -7.49999987	     -6.34083453	     -0.46246232	     -3.04181441	     30.94925268	    -11.70921746	      4.26090976	     73.97712726	     92.38205856	     26.97859693	    -14.31902580	      0.91430687	     76.79474342	     85.14367078
      6.67000000	     -5.84226656	      0.84043773	     -0.64219398	     -0.18203289	      0.91414325	     -0.59948769	     14.72087286	     -3.08666136	      0.13984803	     15.50824411	      0.27066992	      8.63575049	     -2.60925151	     -7.49999987	     14.18076724	     -0.82431981	     -1.88924246	     12.35835469	      0.21569398	      4.94097491	     -6.72158526	     -7.49999987	     -6.40266437	     -0.47035380	     -3.05746860	     31.01537828	    -11.71055363	      4.36959910	     74.01070554	     91.95015255	     27.04940588	    -14.42810722	      1.14683875	     76.79674982	     84.64847613
      6.68000000	     -6.15044253	      0.84460950	     -0.61858765	     -0.18197722	      0.91371547	     -0.59961341	     15.15420647	     -3.11796349	      0.02806393	     15.67737534	      0.27362182	      8.51140300	     -2.59967374	     -7.49999987	     14.55921618	     -0.81842194	     -1.89526051	     12.42283930	      0.21681945	      4.89259051	     -6.68362928	     -7.49999987	     -6.06925601	     -0.45212295	     -3.01258087	     30.91578805	    -11.64999502	      4.33062635	     74.10095180	     91.25396413	     27.00932876	    -14.39710252	      1.19066965	     76.81654870	     83.92461422
      6.69000000	     -5.97123151	      0.84663954	     -0.55296555	     -0.18200568	      0.91400433	     -0.59980108	     14.85538298	     -3.08573397	      0.38790182	     15.52708852	      0.27099882	      8.35884540	     -3.12192499	     -7.49999987	     14.29227933	     -0.71251138	     -1.26961517	     12.26925491	      0.21413889	      4.34877994	     -7.72383809	     -7.49999987	     -6.38582902	     -0.46043005	     -3.10368677	     31.18394603	    -11.63384755	      4.57550630	     73.86280193	     92.09577591	     27.18458094	    -14.45044352	      1.40565001	     76.65008813	     84.55009134
      6.70000000	     -5.96182460	      0.85627985	     -0.53597511	     -0.18194352	      0.91400038	     -0.59989633	     14.82250034	     -3.09227350	      0.48263250	     15.49799595	      0.27049106	      8.39837437	     -3.14080149	     -7.49999987	     14.26450145	     -0.68887172	     -1.20063496	     12.24463344	      0.21370917	      4.37333290	     -7.66924326	     -7.49999987	     -6.48357436	     -0.47627126	     -3.09295484	     31.22772773	    -11.53794380	      4.51599920	     73.94247266	     91.77049863	     27.25175724	    -14.23115523	      1.28642828	     76.63383978	     84.13551377
      6.71000000	     -5.95244165	      0.85910239	     -0.51869191	     -0.18191083	      0.91400466	     -0.59999863	     14.81576822	     -3.09557109	      0.53881735	     15.51821221	      0.27084390	      8.38698405	     -3.19489131	     -7.49999987	     14.22578316	     -0.67176312	     -1.15975926	     12.18215427	      0.21261870	      4.31526998	     -7.66854884	     -7.49999987	     -6.57679173	     -0.47683236	     -3.07462927	     31.27895347	    -11.46220632	      4.49827386	     74.01063718	     91.41031070	     27.31698640	    -14.10534236	      1.17744396	     76.60064267	     83.64468381
      6.72000000	     -5.96938719	      0.85049359	     -0.50165223	     -0.18182375	      0.91397555	     -0.60010575	     14.82894159	     -3.09224279	      0.56083447	     15.52898904	      0.27103199	      8.36706456	     -3.25443164	     -7.49999987	     14.18742394	     -0.66147717	     -1.11989270	     12.06915846	      0.21064655	      4.26320611	     -7.70775346	     -7.49999987	     -6.60064640	     -0.46714478	     -3.06306081	     31.28726268	    -11.38267223	      4.50449571	     74.06464721	     91.10151215	     27.31163703	    -14.11200555	      1.20619595	     76.58728797	     83.23511394
      6.73000000	     -5.90721134	      0.84046939	     -0.47446811	     -0.18191093	      0.91406782	     -0.60021218	     14.74693131	     -3.08087197	      0.62989478	     15.50148469	      0.27055195	      8.32821508	     -3.31325003	     -7.49999987	     14.05987319	     -0.64122472	     -1.05242126	     11.92554155	      0.20813997	      4.16738084	     -7.75490905	     -7.49999987	     -6.78501834	     -0.44760246	     -3.07441927	     31.44288273	    -11.33034026	      4.57645393	     74.08098198	     90.62980296	     27.41703065	    -14.27984004	      1.47864718	     76.62851716	     82.67095260
      6.74000000	     -5.92794346	      0.84591717	     -0.45314300	     -0.18193031	      0.91405065	     -0.60026891	     14.75900765	     -3.08604039	      0.66904215	     15.48452104	      0.27025588	      8.24287380	     -3.40521910	     -7.49999987	     14.00082631	     -0.61070874	     -1.00168597	     11.75034833	      0.20508227	      4.03600770	     -7.83141286	     -7.49999987	     -6.81773311	     -0.45661654	     -3.08330007	     31.49090265	    -11.30089145	      4.65004207	     74.06017604	     90.28872110	     27.45032195	    -14.37315561	      1.66997970	     76.58419265	     82.29252530
      6.75000000	     -5.95502801	      0.86085549	     -0.41775680	     -0.18207140	      0.91402041	     -0.60026438	     14.80756064	     -3.09802494	      0.68598119	     15.51703866	      0.27082341	      8.25261363	     -3.47262465	     -7.49999987	     13.98099200	     -0.57516466	     -0.92158623	     11.62655762	      0.20292171	      3.99601915	     -7.85430645	     -7.49999987	     -6.86958893	     -0.48852409	     -3.08072119	     31.52264470	    -11.23311966	      4.64452839	     74.14155324	     89.73922090	     27.54895766	    -14.24462040	      1.57545304	     76.51623316	     81.72433932
      6.76000000	     -5.91679452	      0.85856064	     -0.39112226	     -0.18235603	      0.91411053	     -0.60025257	     14.78148454	     -3.08393264	      0.72756494	     15.51701623	      0.27082302	      8.21470619	     -3.51400948	     -7.49999987	     13.89644247	     -0.55271466	     -0.78841730	     11.48502920	      0.20045157	      3.85636406	     -7.91823204	     -7.49999987	     -7.05650579	     -0.49161086	     -3.09917384	     31.66400006	    -11.16770414	      4.71303747	     74.19666301	     89.34420908	     27.69133498	    -14.07896411	      1.35767967	     76.42878311	     81.38696986
